# This file uses centimeters as units for non-parametric coordinates.

mtllib faerie_weapon.mtl
g default
v -0.195261 2.033677 -0.902794
v -0.149713 2.153370 -0.911115
v -0.116325 2.268317 -0.957408
v -0.098366 2.367265 -1.037141
v -0.097594 2.440528 -1.142509
v -0.114085 2.480935 -1.263197
v -0.146224 2.484531 -1.387393
v -0.190865 2.450964 -1.502939
v -0.243638 2.383519 -1.598525
v -0.299379 2.288798 -1.664793
v -0.352629 2.176074 -1.695258
v -0.398178 2.056380 -1.686937
v -0.431566 1.941434 -1.640644
v -0.449525 1.842486 -1.560911
v -0.450297 1.769223 -1.455543
v -0.433806 1.728815 -1.334855
v -0.401667 1.725220 -1.210659
v -0.357026 1.758787 -1.095113
v -0.304252 1.826232 -0.999527
v -0.248512 1.920953 -0.933259
v -4.258635 3.656335 0.195687
v -4.213087 3.776029 0.187366
v -4.179699 3.890975 0.141073
v -4.161740 3.989923 0.061340
v -4.160968 4.063187 -0.044028
v -4.177459 4.103594 -0.164717
v -4.209598 4.107190 -0.288913
v -4.254239 4.073622 -0.404459
v -4.307012 4.006177 -0.500044
v -4.362753 3.911456 -0.566313
v -4.416003 3.798732 -0.596777
v -4.461552 3.679039 -0.588456
v -4.494940 3.564092 -0.542163
v -4.512899 3.465144 -0.462430
v -4.513671 3.391881 -0.357063
v -4.497180 3.351474 -0.236374
v -4.465041 3.347878 -0.112178
v -4.420400 3.381445 0.003368
v -4.367627 3.448891 0.098954
v -4.311886 3.543611 0.165222
v -0.273945 2.104875 -1.299026
v -4.337319 3.727534 -0.200545
vt 0.648603 0.107966
vt 0.626409 0.064408
vt 0.591842 0.029841
vt 0.548284 0.007647
vt 0.500000 -0.000000
vt 0.451716 0.007647
vt 0.408159 0.029841
vt 0.373591 0.064409
vt 0.351397 0.107966
vt 0.343750 0.156250
vt 0.351397 0.204534
vt 0.373591 0.248091
vt 0.408159 0.282659
vt 0.451716 0.304853
vt 0.500000 0.312500
vt 0.548284 0.304853
vt 0.591841 0.282659
vt 0.626409 0.248091
vt 0.648603 0.204534
vt 0.656250 0.156250
vt 0.375000 0.312500
vt 0.387500 0.312500
vt 0.400000 0.312500
vt 0.412500 0.312500
vt 0.425000 0.312500
vt 0.437500 0.312500
vt 0.450000 0.312500
vt 0.462500 0.312500
vt 0.475000 0.312500
vt 0.487500 0.312500
vt 0.500000 0.312500
vt 0.512500 0.312500
vt 0.525000 0.312500
vt 0.537500 0.312500
vt 0.550000 0.312500
vt 0.562500 0.312500
vt 0.575000 0.312500
vt 0.587500 0.312500
vt 0.600000 0.312500
vt 0.612500 0.312500
vt 0.625000 0.312500
vt 0.375000 0.688440
vt 0.387500 0.688440
vt 0.400000 0.688440
vt 0.412500 0.688440
vt 0.425000 0.688440
vt 0.437500 0.688440
vt 0.450000 0.688440
vt 0.462500 0.688440
vt 0.475000 0.688440
vt 0.487500 0.688440
vt 0.500000 0.688440
vt 0.512500 0.688440
vt 0.525000 0.688440
vt 0.537500 0.688440
vt 0.550000 0.688440
vt 0.562500 0.688440
vt 0.575000 0.688440
vt 0.587500 0.688440
vt 0.600000 0.688440
vt 0.612500 0.688440
vt 0.625000 0.688440
vt 0.648603 0.795466
vt 0.626409 0.751908
vt 0.591842 0.717341
vt 0.548284 0.695147
vt 0.500000 0.687500
vt 0.451716 0.695147
vt 0.408159 0.717341
vt 0.373591 0.751909
vt 0.351397 0.795466
vt 0.343750 0.843750
vt 0.351397 0.892034
vt 0.373591 0.935591
vt 0.408159 0.970159
vt 0.451716 0.992353
vt 0.500000 1.000000
vt 0.548284 0.992353
vt 0.591841 0.970159
vt 0.626409 0.935591
vt 0.648603 0.892034
vt 0.656250 0.843750
vt 0.500000 0.150000
vt 0.500000 0.837500
vn 0.191820 -0.173573 0.965959
vn 0.302862 0.118225 0.945673
vn 0.302862 0.118225 0.945673
vn 0.191820 -0.173573 0.965959
vn 0.384257 0.398449 0.832818
vn 0.384257 0.398449 0.832818
vn 0.428038 0.639670 0.638440
vn 0.428038 0.639670 0.638440
vn 0.429920 0.818275 0.381568
vn 0.429920 0.818275 0.381568
vn 0.389718 0.916783 0.087345
vn 0.389718 0.916783 0.087345
vn 0.311368 0.925549 -0.215428
vn 0.311368 0.925549 -0.215428
vn 0.202539 0.843716 -0.497113
vn 0.202539 0.843716 -0.497113
vn 0.073884 0.679294 -0.730137
vn 0.073884 0.679294 -0.730137
vn -0.062003 0.448378 -0.891691
vn -0.062003 0.448378 -0.891691
vn -0.191821 0.173572 -0.965959
vn -0.191821 0.173572 -0.965959
vn -0.302862 -0.118225 -0.945673
vn -0.302862 -0.118225 -0.945673
vn -0.384257 -0.398449 -0.832818
vn -0.384257 -0.398449 -0.832818
vn -0.428038 -0.639670 -0.638440
vn -0.428038 -0.639670 -0.638440
vn -0.429920 -0.818275 -0.381568
vn -0.429920 -0.818275 -0.381568
vn -0.389719 -0.916783 -0.087345
vn -0.389719 -0.916783 -0.087345
vn -0.311368 -0.925549 0.215428
vn -0.311368 -0.925549 0.215428
vn -0.202540 -0.843716 0.497113
vn -0.202540 -0.843716 0.497113
vn -0.073885 -0.679294 0.730137
vn -0.073885 -0.679294 0.730137
vn 0.062002 -0.448379 0.891690
vn 0.062002 -0.448379 0.891690
vn 0.900735 -0.359698 -0.243502
vn 0.900735 -0.359698 -0.243502
vn 0.900735 -0.359698 -0.243502
vn 0.900735 -0.359698 -0.243502
vn 0.900735 -0.359698 -0.243502
vn 0.900735 -0.359698 -0.243502
vn 0.900735 -0.359698 -0.243502
vn 0.900735 -0.359698 -0.243502
vn 0.900735 -0.359698 -0.243502
vn 0.900735 -0.359698 -0.243502
vn 0.900735 -0.359698 -0.243502
vn 0.900735 -0.359698 -0.243502
vn 0.900735 -0.359698 -0.243502
vn 0.900735 -0.359698 -0.243502
vn 0.900735 -0.359698 -0.243502
vn 0.900735 -0.359698 -0.243502
vn 0.900735 -0.359698 -0.243502
vn 0.900735 -0.359698 -0.243502
vn 0.900735 -0.359698 -0.243502
vn 0.900735 -0.359698 -0.243502
vn 0.900735 -0.359698 -0.243502
vn -0.900735 0.359698 0.243502
vn -0.900735 0.359698 0.243502
vn -0.900735 0.359698 0.243502
vn -0.900735 0.359698 0.243502
vn -0.900735 0.359698 0.243502
vn -0.900735 0.359698 0.243502
vn -0.900735 0.359698 0.243502
vn -0.900735 0.359698 0.243502
vn -0.900735 0.359698 0.243502
vn -0.900735 0.359698 0.243502
vn -0.900735 0.359698 0.243502
vn -0.900735 0.359698 0.243502
vn -0.900735 0.359698 0.243502
vn -0.900735 0.359698 0.243502
vn -0.900735 0.359698 0.243502
vn -0.900735 0.359698 0.243502
vn -0.900735 0.359698 0.243502
vn -0.900735 0.359698 0.243502
vn -0.900735 0.359698 0.243502
vn -0.900735 0.359698 0.243502
vn -0.900735 0.359698 0.243502
s 1
g pCylinder1
usemtl initialShadingGroup
f 1/21/1 2/22/2 22/43/3 21/42/4
f 2/22/2 3/23/5 23/44/6 22/43/3
f 3/23/5 4/24/7 24/45/8 23/44/6
f 4/24/7 5/25/9 25/46/10 24/45/8
f 5/25/9 6/26/11 26/47/12 25/46/10
f 6/26/11 7/27/13 27/48/14 26/47/12
f 7/27/13 8/28/15 28/49/16 27/48/14
f 8/28/15 9/29/17 29/50/18 28/49/16
f 9/29/17 10/30/19 30/51/20 29/50/18
f 10/30/19 11/31/21 31/52/22 30/51/20
f 11/31/21 12/32/23 32/53/24 31/52/22
f 12/32/23 13/33/25 33/54/26 32/53/24
f 13/33/25 14/34/27 34/55/28 33/54/26
f 14/34/27 15/35/29 35/56/30 34/55/28
f 15/35/29 16/36/31 36/57/32 35/56/30
f 16/36/31 17/37/33 37/58/34 36/57/32
f 17/37/33 18/38/35 38/59/36 37/58/34
f 18/38/35 19/39/37 39/60/38 38/59/36
f 19/39/37 20/40/39 40/61/40 39/60/38
f 20/40/39 1/41/1 21/62/4 40/61/40
s 2
f 2/2/41 1/1/42 41/83/43
f 3/3/44 2/2/41 41/83/43
f 4/4/45 3/3/44 41/83/43
f 5/5/46 4/4/45 41/83/43
f 6/6/47 5/5/46 41/83/43
f 7/7/48 6/6/47 41/83/43
f 8/8/49 7/7/48 41/83/43
f 9/9/50 8/8/49 41/83/43
f 10/10/51 9/9/50 41/83/43
f 11/11/52 10/10/51 41/83/43
f 12/12/53 11/11/52 41/83/43
f 13/13/54 12/12/53 41/83/43
f 14/14/55 13/13/54 41/83/43
f 15/15/56 14/14/55 41/83/43
f 16/16/57 15/15/56 41/83/43
f 17/17/58 16/16/57 41/83/43
f 18/18/59 17/17/58 41/83/43
f 19/19/60 18/18/59 41/83/43
f 20/20/61 19/19/60 41/83/43
f 1/1/42 20/20/61 41/83/43
s 3
f 21/81/62 22/80/63 42/84/64
f 22/80/63 23/79/65 42/84/64
f 23/79/65 24/78/66 42/84/64
f 24/78/66 25/77/67 42/84/64
f 25/77/67 26/76/68 42/84/64
f 26/76/68 27/75/69 42/84/64
f 27/75/69 28/74/70 42/84/64
f 28/74/70 29/73/71 42/84/64
f 29/73/71 30/72/72 42/84/64
f 30/72/72 31/71/73 42/84/64
f 31/71/73 32/70/74 42/84/64
f 32/70/74 33/69/75 42/84/64
f 33/69/75 34/68/76 42/84/64
f 34/68/76 35/67/77 42/84/64
f 35/67/77 36/66/78 42/84/64
f 36/66/78 37/65/79 42/84/64
f 37/65/79 38/64/80 42/84/64
f 38/64/80 39/63/81 42/84/64
f 39/63/81 40/82/82 42/84/64
f 40/82/82 21/81/62 42/84/64
