# This file uses centimeters as units for non-parametric coordinates.

g default
v -0.500000 -0.500000 0.500000
v 0.500000 -0.500000 0.500000
v -0.500000 0.500000 0.500000
v 0.500000 0.500000 0.500000
v -0.500000 0.500000 -0.500000
v 0.500000 0.500000 -0.500000
v -0.500000 -0.500000 -0.500000
v 0.500000 -0.500000 -0.500000
v -0.500000 1.500000 0.500000
v 0.500000 1.500000 0.500000
v -0.500000 1.500000 -0.500000
v 0.500000 1.500000 -0.500000
v -1.066667 2.112806 1.066667
v 1.066667 2.112806 1.066667
v -1.066667 2.112806 -1.066667
v 1.066667 2.112806 -1.066667
v -1.528889 3.204285 1.528889
v 1.528889 3.204285 1.528889
v -1.528889 3.204285 -1.528889
v 1.528889 3.204285 -1.528889
v -1.681778 4.145048 1.681778
v 1.681778 4.145048 1.681778
v -1.681778 4.145048 -1.681778
v 1.681778 4.145048 -1.681778
v -1.205274 5.682234 1.205274
v 1.205274 5.682234 1.205274
v -1.205274 5.682234 -1.205274
v 1.205274 5.682234 -1.205274
v -0.361582 6.735783 0.361582
v 0.361582 6.735783 0.361582
v -0.361582 6.735783 -0.361582
v 0.361582 6.735783 -0.361582
v 0.000000 7.204779 0.000000
vt 0.351348 0.000000
vt 0.351348 0.000000
vt 0.351348 0.129790
vt 0.351348 0.129790
vt 0.648652 0.129790
vt 0.648652 0.129790
vt 0.648652 0.000000
vt 0.648652 0.000000
vt 0.351348 0.259579
vt 0.351348 0.259579
vt 0.648652 0.259579
vt 0.648652 0.259579
vt 0.182875 0.339115
vt 0.182875 0.339115
vt 0.817125 0.339115
vt 0.817125 0.339115
vt 0.045455 0.480778
vt 0.045455 0.480778
vt 0.954545 0.480778
vt 0.954545 0.480778
vt -0.000000 0.602879
vt -0.000000 0.602879
vt 1.000000 0.602879
vt 1.000000 0.602879
vt 0.141667 0.802390
vt 0.141667 0.802390
vt 0.858333 0.802390
vt 0.858333 0.802390
vt 0.392500 0.939129
vt 0.392500 0.939129
vt 0.607500 0.939129
vt 0.607500 0.939129
vt 0.500000 1.000000
vn 0.000000 -0.000000 1.000000
vn 0.000000 -0.000000 1.000000
vn 0.000000 -0.000000 1.000000
vn 0.000000 0.000000 1.000000
vn -0.000000 -0.000000 -1.000000
vn -0.000000 0.000000 -1.000000
vn -0.000000 0.000000 -1.000000
vn 0.000000 0.000000 -1.000000
vn 0.000000 -1.000000 0.000000
vn 0.000000 -1.000000 0.000000
vn 0.000000 -1.000000 0.000000
vn 0.000000 -1.000000 0.000000
vn 1.000000 0.000000 0.000000
vn 1.000000 0.000000 0.000000
vn 1.000000 0.000000 0.000000
vn 1.000000 0.000000 0.000000
vn -1.000000 0.000000 0.000000
vn -1.000000 0.000000 -0.000000
vn -1.000000 0.000000 -0.000000
vn -1.000000 -0.000000 -0.000000
vn 0.000000 0.000000 1.000000
vn 0.000000 0.000000 1.000000
vn -0.000000 -0.000000 -1.000000
vn 0.000000 -0.000000 -1.000000
vn -1.000000 -0.000000 -0.000000
vn -1.000000 0.000000 0.000000
vn 1.000000 0.000000 0.000000
vn 1.000000 0.000000 0.000000
vn 0.000000 -0.678926 0.734206
vn 0.000000 -0.678926 0.734206
vn 0.000000 -0.590418 0.807098
vn 0.000000 -0.492803 0.870141
vn 0.000000 -0.678926 -0.734206
vn 0.000000 -0.678926 -0.734206
vn 0.000000 -0.590418 -0.807098
vn 0.000000 -0.492803 -0.870141
vn -0.734206 -0.678926 0.000000
vn -0.734206 -0.678926 0.000000
vn -0.807098 -0.590418 0.000000
vn -0.870141 -0.492803 0.000000
vn 0.734206 -0.678926 0.000000
vn 0.734206 -0.678926 0.000000
vn 0.807098 -0.590418 0.000000
vn 0.870141 -0.492803 0.000000
vn 0.000000 -0.315449 0.948943
vn 0.000000 -0.238444 0.971156
vn 0.000000 -0.315449 -0.948943
vn 0.000000 -0.238444 -0.971156
vn -0.948943 -0.315449 0.000000
vn -0.971156 -0.238443 0.000000
vn 0.948943 -0.315449 0.000000
vn 0.971156 -0.238443 0.000000
vn 0.000000 -0.008445 0.999964
vn 0.000000 0.147390 0.989079
vn 0.000000 -0.008445 -0.999964
vn 0.000000 0.147390 -0.989079
vn -0.999964 -0.008445 0.000000
vn -0.989079 0.147390 0.000000
vn 0.999964 -0.008445 0.000000
vn 0.989079 0.147390 0.000000
vn 0.000000 0.412153 0.911115
vn 0.000000 0.523548 0.851996
vn 0.000000 0.412153 -0.911115
vn 0.000000 0.523548 -0.851996
vn -0.911115 0.412153 0.000000
vn -0.851996 0.523548 0.000000
vn 0.911115 0.412153 0.000000
vn 0.851996 0.523548 0.000000
vn 0.000000 0.620269 0.784389
vn 0.000000 0.617855 0.786292
vn 0.000000 0.620269 -0.784389
vn 0.000000 0.617855 -0.786292
vn -0.784389 0.620269 0.000000
vn -0.786293 0.617854 0.000000
vn 0.784389 0.620269 0.000000
vn 0.786293 0.617854 0.000000
vn 0.000000 0.610577 0.791957
vn 0.000000 0.610577 -0.791957
vn -0.791958 0.610576 0.000000
vn 0.791958 0.610576 0.000000
s 1
g Tree
f 1/1/1 2/2/2 3/3/3
f 3/3/3 2/2/2 4/4/4
s 2
f 5/5/5 6/6/6 7/7/7
f 7/7/7 6/6/6 8/8/8
s 3
f 7/7/9 8/8/10 1/1/11
f 1/1/11 8/8/10 2/2/12
s 4
f 2/2/13 8/8/14 4/4/15
f 4/4/15 8/8/14 6/6/16
s 5
f 7/7/17 1/1/18 5/5/19
f 5/5/19 1/1/18 3/3/20
s 1
f 3/3/3 4/4/4 9/9/21
f 9/9/21 4/4/4 10/10/22
s 2
f 6/6/6 5/5/5 12/11/23
f 12/11/23 5/5/5 11/12/24
s 5
f 5/5/19 3/3/20 11/12/25
f 11/12/25 3/3/20 9/9/26
s 4
f 4/4/15 6/6/16 10/10/27
f 10/10/27 6/6/16 12/11/28
s 6
f 9/9/29 10/10/30 13/13/31
f 13/13/31 10/10/30 14/14/32
s 7
f 12/11/33 11/12/34 16/15/35
f 16/15/35 11/12/34 15/16/36
s 8
f 11/12/37 9/9/38 15/16/39
f 15/16/39 9/9/38 13/13/40
s 9
f 10/10/41 12/11/42 14/14/43
f 14/14/43 12/11/42 16/15/44
s 6
f 13/13/31 14/14/32 17/17/45
f 17/17/45 14/14/32 18/18/46
s 7
f 16/15/35 15/16/36 20/19/47
f 20/19/47 15/16/36 19/20/48
s 8
f 15/16/39 13/13/40 19/20/49
f 19/20/49 13/13/40 17/17/50
s 9
f 14/14/43 16/15/44 18/18/51
f 18/18/51 16/15/44 20/19/52
s 6
f 17/17/45 18/18/46 21/21/53
f 21/21/53 18/18/46 22/22/54
s 7
f 20/19/47 19/20/48 24/23/55
f 24/23/55 19/20/48 23/24/56
s 8
f 19/20/49 17/17/50 23/24/57
f 23/24/57 17/17/50 21/21/58
s 9
f 18/18/51 20/19/52 22/22/59
f 22/22/59 20/19/52 24/23/60
s 6
f 21/21/53 22/22/54 25/25/61
f 25/25/61 22/22/54 26/26/62
s 7
f 24/23/55 23/24/56 28/27/63
f 28/27/63 23/24/56 27/28/64
s 8
f 23/24/57 21/21/58 27/28/65
f 27/28/65 21/21/58 25/25/66
s 9
f 22/22/59 24/23/60 26/26/67
f 26/26/67 24/23/60 28/27/68
s 6
f 25/25/61 26/26/62 29/29/69
f 29/29/69 26/26/62 30/30/70
s 7
f 28/27/63 27/28/64 32/31/71
f 32/31/71 27/28/64 31/32/72
s 8
f 27/28/65 25/25/66 31/32/73
f 31/32/73 25/25/66 29/29/74
s 9
f 26/26/67 28/27/68 30/30/75
f 30/30/75 28/27/68 32/31/76
s 6
f 29/29/69 30/30/70 33/33/77
s 7
f 32/31/71 31/32/72 33/33/78
s 8
f 31/32/73 29/29/74 33/33/79
s 9
f 30/30/75 32/31/76 33/33/80
