# This file uses centimeters as units for non-parametric coordinates.

g default
v -10.000000 -10.000000 10.000000
v 10.000000 -10.000000 10.000000
v -10.000000 10.000000 10.000000
v 10.000000 10.000000 10.000000
v -10.000000 10.000000 -10.000000
v 10.000000 10.000000 -10.000000
v -10.000000 -10.000000 -10.000000
v 10.000000 -10.000000 -10.000000
v -66.195383 -10.000000 -10.000000
v -66.195383 10.000000 -10.000000
vt 0.375000 0.000000
vt 0.625000 0.000000
vt 0.375000 0.250000
vt 0.625000 0.250000
vt 0.375000 0.500000
vt 0.625000 0.500000
vt 0.375000 0.750000
vt 0.625000 0.750000
vt 0.375000 1.000000
vt 0.625000 1.000000
vt 0.875000 0.000000
vt 0.875000 0.250000
vt 0.000000 0.000000
vt 1.000000 0.000000
vt 1.000000 1.000000
vt 0.000000 1.000000
vt 0.000000 0.000000
vt 1.000000 0.000000
vt 0.500000 1.000000
vt 0.000000 0.000000
vt 1.000000 0.000000
vt 1.000000 1.000000
vt 0.000000 1.000000
vt 0.000000 0.000000
vt 1.000000 0.000000
vt 0.500000 1.000000
vn -0.170130 0.000000 0.985422
vn 0.000000 0.000000 1.000000
vn 0.000000 0.000000 1.000000
vn -0.170130 0.000000 0.985422
vn 0.000000 1.000000 0.000000
vn 0.000000 1.000000 0.000000
vn 0.000000 1.000000 0.000000
vn 0.000000 1.000000 0.000000
vn 0.000000 0.000000 -1.000000
vn 0.000000 0.000000 -1.000000
vn 0.000000 0.000000 -1.000000
vn 0.000000 0.000000 -1.000000
vn 0.000000 -1.000000 0.000000
vn 0.000000 -1.000000 0.000000
vn 0.000000 -1.000000 0.000000
vn 0.000000 -1.000000 0.000000
vn 1.000000 0.000000 0.000000
vn 1.000000 0.000000 0.000000
vn 1.000000 0.000000 0.000000
vn 1.000000 0.000000 0.000000
vn -0.335299 0.000000 0.942112
vn -0.335299 0.000000 0.942112
vn 0.000000 1.000000 0.000000
vn 0.000000 0.000000 -1.000000
vn 0.000000 0.000000 -1.000000
vn 0.000000 -1.000000 0.000000
s 1
g pCube1
f 1/1/1 2/2/2 4/4/3 3/3/4
s 2
f 3/3/5 4/4/6 6/6/7 5/5/8
s 3
f 5/5/9 6/6/10 8/8/11 7/7/12
s 4
f 7/7/13 8/8/14 2/10/15 1/9/16
s off
f 2/2/17 8/11/18 6/12/19 4/4/20
s 1
f 1/13/1 3/14/4 10/15/21 9/16/22
s 2
f 3/17/5 5/18/8 10/19/23
s 3
f 5/20/9 7/21/12 9/22/24 10/23/25
s 4
f 7/24/13 1/25/16 9/26/26
